<?xml version="1.0" encoding="UTF-8"?>
<svg width="96px" height="26px" viewBox="0 0 96 26" version="1.1" xmlns="http://www.w3.org/2000/svg" xmlns:xlink="http://www.w3.org/1999/xlink">
    <!-- Generator: sketchtool 60 (101010) - https://sketch.com -->
    <title>CEB62B63-92FA-4881-ACE7-A5521F52DE45</title>
    <desc>Created with sketchtool.</desc>
    <g id="Page-1" stroke="none" stroke-width="1" fill="none" fill-rule="evenodd">
        <g id="LR_Verify" transform="translate(-110.000000, -68.000000)" fill="#FFFFFF">
            <g id="LexReception-Logo" transform="translate(110.000000, 68.000000)">
                <path d="M64.4103429,10.2652795 C64.7807702,10.2652795 65.3070294,10.4516326 65.3070294,10.92126 C65.3070294,11.3287697 64.3476619,12.5504177 64.101726,13.1768812 C65.9869442,11.2032126 67.5970624,10.3269566 68.3692575,10.3269566 C69.0805127,10.3269566 69.5449615,10.8291848 69.5449615,11.8609553 C69.5449615,13.6139079 67.1639541,18.1225071 63.6059367,18.1225071 C63.1728284,18.1225071 62.5551594,17.8405544 62.3684223,17.6537608 C62.0715581,18.0291103 61.3733614,19.8419777 60.8619018,21.709033 C60.6882232,22.5059898 60.5498027,23.2558076 60.5498027,23.8386567 C60.5498027,24.2470475 60.6716824,24.6223969 60.6716824,25.0607452 C60.6716824,25.4369758 60.3016904,26 59.8372416,26 C59.3745339,26 58.9732014,25.6867682 58.9732014,24.8422319 C58.9732014,23.932494 59.1373038,22.8240676 59.3806279,21.6790755 L59.3806279,21.6790755 L59.4015216,21.5962519 C59.8563941,19.7979226 60.4253113,18.1291153 60.8222909,17.0272972 C60.9600856,16.6429169 61.1054847,16.2520443 61.253472,15.8653629 C59.8680615,17.0862135 58.0953737,18.122463 55.964644,18.122463 C54.9425955,18.122463 54.0785553,17.3078842 54.0785553,15.9324839 L54.0725403,15.8721671 C52.6215467,17.049093 50.8666157,18.0289781 49.251683,18.0289781 C48.5921501,18.0289781 47.4366174,17.5294646 47.367931,16.1267217 C46.0323307,17.2295855 44.3625957,18.122463 42.3845006,18.122463 C41.3650638,18.122463 40.4992825,17.3078842 40.4992825,15.9324839 C40.5358464,15.5610993 40.5919981,15.0839826 40.8592629,14.4826304 C42.1712111,11.7661928 44.2418605,10.3577512 45.8506729,10.3577512 C46.4996824,10.3577512 47.2105023,10.8595388 47.2105023,11.5476795 C47.2105023,13.1768372 44.6135937,15.0231865 42.5712377,15.4928139 C42.1681641,15.5870919 42.0449785,15.8060457 42.0449785,16.0258807 C42.0449785,16.2756731 42.3226902,16.8708575 42.9116304,16.8708575 C45.1146201,16.8708575 46.9404018,15.1359349 48.1245743,13.7692758 C49.1486373,12.0499843 51.0419942,10.357663 52.7161141,10.357663 C53.4600157,10.357663 54.2339519,11.0162868 54.2339519,11.7352661 C54.2339519,12.7066811 53.2441145,13.5833777 52.5933638,13.5833777 C52.3152169,13.5833777 52.0370699,13.3957029 52.0370699,12.9569141 C52.0370699,12.6749615 52.2225012,12.4564481 52.4066267,12.33001 C52.5620233,12.2357321 52.7161141,12.1110561 52.7161141,11.9551011 C52.7161141,11.9247031 52.6560448,11.8612637 52.5620233,11.8612637 C51.4799055,11.8612637 49.0353465,14.2085196 49.0353465,15.899795 C49.0353465,16.3064236 49.2843293,16.681773 49.6547566,16.681773 C51.6649015,16.681773 54.1717062,14.5217514 55.2529535,13.0820306 C55.3100117,13.0101822 55.3677845,12.9375693 55.4259295,12.8661109 C56.6138402,11.1888348 58.1804582,10.3577512 59.430381,10.3577512 C60.0798258,10.3577512 60.7902104,10.8595388 60.7902104,11.5476795 C60.7902104,13.1768372 58.1915606,15.0231865 56.1500753,15.4928139 C55.7483075,15.5870919 55.6255572,15.8060457 55.6255572,16.0258807 C55.6255572,16.2756731 55.9032689,16.8708575 56.4904679,16.8708575 C59.0899883,16.8708575 61.1628142,14.4584001 62.2749666,13.0821187 C62.3582246,12.9774016 62.442892,12.8710606 62.5279622,12.7690369 C62.6876243,12.4111752 62.8238781,12.121416 62.9247161,11.9248352 C63.3582597,11.1093753 63.791368,10.2652795 64.4103429,10.2652795 Z M42.4750834,-3.73034936e-14 C45.3849617,-3.73034936e-14 47.1439473,1.10049647 47.1439473,3.52793263 C47.1439473,6.53865835 42.5234,10.4780656 39.0184874,10.9494552 C39.0241461,10.9653151 39.0276283,10.9851399 39.0315459,11.0023214 L39.0315459,11.0023214 L38.9550884,11.0027392 C38.7117947,15.0331294 39.262293,19.3111451 43.2426209,21.4538218 C43.5804018,21.6362099 43.716646,22.051209 43.5425321,22.396601 C43.4171701,22.6450718 43.1651402,22.7842859 42.9074517,22.776356 C42.8073362,22.7728316 42.707656,22.7494824 42.6118933,22.7005812 C40.6291714,21.671454 38.8344925,19.6977854 38.0705678,17.0505143 C37.4198172,14.7931308 37.3932648,12.4004982 37.4542046,10.357663 C37.4564303,10.2816181 37.4693461,10.208463 37.491449,10.1396151 C37.5676682,9.60053923 38.3459297,9.48418252 38.8926901,9.48418252 C41.3873068,9.48418252 45.5125002,6.02012979 45.5125002,3.68961486 C45.5125002,2.07147093 44.3611721,1.32738025 42.0593864,1.32738025 C36.3345218,1.32738025 30.8325228,5.85800701 30.8325228,8.67356863 C30.9134858,9.53088093 30.9134858,10.4789467 30.0019996,10.5194774 C29.4261179,10.5194774 29.010421,10.0657099 29.010421,9.35421997 C29.010421,4.5645492 35.4391411,-3.73034936e-14 42.4750834,-3.73034936e-14 Z M76.1054858,3.47061694 C76.6635208,3.47061694 76.9599497,3.72789874 76.8802926,4.19003677 C76.8080354,4.59270041 76.5616642,4.81341647 76.1368263,5.34912652 C75.8029629,5.7694122 75.5182867,6.1319857 74.653376,7.6963824 C75.1774588,7.54042733 75.7968689,7.41619194 76.4149733,7.41619194 C77.5602074,7.41619194 78.1165012,7.72898317 78.1165012,8.44708135 C78.1165012,9.07574767 77.6224531,9.79516749 77.157569,9.79516749 C76.7867064,9.79516749 76.6926849,9.60705221 76.6926849,9.41937747 C76.6926849,9.26298185 76.7562365,9.13742481 76.7562365,8.98146975 C76.7562365,8.8550316 76.4776543,8.73035566 76.1054858,8.73035566 C75.4865109,8.73035566 74.4984146,8.98146975 73.6617974,9.26298185 C71.9284936,12.3618178 70.2913878,16.0258807 70.2913878,17.6224376 C70.2913878,17.9043903 70.5068537,18.217622 70.5068537,18.4044157 C70.5068537,18.6859278 70.2274009,19.1255977 69.7651285,19.1255977 C69.2079641,19.1255977 68.8976061,18.6859278 68.8976061,17.8096718 C68.8976061,16.1505566 70.414138,12.5812122 71.805308,9.79516749 C70.3214224,9.79516749 69.9810297,9.57577308 69.9810297,9.07574767 C69.9810297,8.57396005 70.2913878,8.1668909 70.8463758,8.1668909 C71.1567338,8.1668909 71.4035402,8.41756443 71.7739675,8.41756443 C72.0225151,8.41756443 72.3315673,8.38496365 72.6097142,8.29200739 C73.6909614,6.38309978 74.1867507,5.34912652 74.7447858,4.59622482 C75.2701744,3.84596642 75.6419076,3.47061694 76.1054858,3.47061694 Z M85.1104821,9.70106579 C85.3268186,9.70106579 85.7612327,9.92001966 85.7612327,10.3579274 C85.7612327,10.7971568 85.6350002,11.0786689 85.3268186,11.9553654 C85.1413873,12.4567125 84.7387489,13.8343155 84.6791149,14.0206686 C85.6672112,12.8941796 87.8945632,10.8081705 89.2565691,10.8081705 C89.9369191,10.8081705 90.4623077,11.248281 90.4623077,11.9994205 C90.4623077,12.9386753 90.2755706,13.846651 90.2755706,14.9427419 C90.2755706,15.9123947 90.3382516,16.7578122 90.9250154,16.7578122 C91.6367059,16.7578122 93.3395398,14.878862 94.3916229,13.4395818 C94.7624855,12.9699544 95.163818,12.4681668 95.5042107,12.4681668 C95.7840988,12.4681668 96,12.6245624 96,12.9386753 C96,13.2823051 95.8450386,13.5021401 95.4728702,13.9708864 C94.0490539,15.7568802 92.0101802,18.1045766 90.4623077,18.1045766 C88.9148706,18.1045766 88.6371589,16.6644153 88.6371589,15.2863717 C88.6371589,14.598231 88.8221549,13.6576546 88.8221549,12.9069556 C88.8221549,12.75056 88.7285687,12.5624447 88.5457491,12.5624447 C87.6777914,12.5624447 84.7387489,15.5242693 84.0283642,16.4943626 C83.7180062,16.9027534 83.4402946,18.2794754 82.9136001,18.2794754 C82.3573062,18.2794754 81.8615169,18.0605215 81.8615169,17.4336174 C81.8615169,16.9114748 82.4004793,15.2985627 82.9332233,13.7345628 C82.3510297,13.8445448 81.8512897,13.8660793 81.6734739,13.8660793 C80.9613481,15.7115475 79.5688722,18.1226833 77.3719902,18.1226833 C76.6715366,18.1226833 75.9877286,17.7118166 75.6952054,16.9035706 C74.8093667,17.5520637 73.9486963,17.9982717 73.2945041,17.9982717 C72.6450593,17.9982717 71.9346746,17.4334853 71.9346746,16.3391565 C71.9346746,14.9606723 73.5117112,11.8922344 73.7589529,11.4234881 C74.1315566,10.7970246 74.4393029,10.2956775 74.8737171,10.2956775 C75.3050843,10.2956775 75.6463475,10.5459105 75.6463475,10.9534202 C75.6463475,11.3913279 75.430011,11.6094007 75.2445797,11.8922344 C74.3457167,13.3641154 73.4825471,15.5245777 73.4825471,16.1506007 C73.4825471,16.3695545 73.6362026,16.6519477 73.9143496,16.6519477 C74.2731081,16.6519477 74.887208,16.2589272 75.5559834,15.6972151 C75.7221476,12.8672693 78.2156484,10.2954132 80.2183171,10.2954132 C81.4253616,10.2954132 81.9807849,10.8910382 81.9807849,11.4236644 C81.9807849,11.6417371 82.0730653,12.3620381 82.3847291,12.3620381 C82.7969114,12.3620381 83.1391454,12.2994024 83.4531374,12.2029418 C83.5261271,11.9813717 83.594344,11.7729248 83.6557605,11.5795754 C84.0893041,10.1706932 84.30477,9.70106579 85.1104821,9.70106579 Z M40.3641701,3.30347188 C40.8751943,3.30347188 41.3235376,3.59423556 41.3235376,4.24184557 C41.3235376,4.5330498 40.6527639,5.27669993 40.2366317,5.66526594 C39.3721562,6.44327906 37.9335402,8.19094498 36.9423969,9.93772981 C35.182976,13.0057272 34.5322254,15.3547452 34.3028303,17.0081332 C34.3450529,18.5681244 32.434153,18.4491757 32.5795381,17.0081332 C32.8768375,15.4424149 33.6233508,12.7083552 35.3749366,9.51832523 C37.9335402,4.8559737 39.7882884,3.30347188 40.3641701,3.30347188 Z M2.68788317,0.0407950252 C2.79365736,0.0407950252 2.89856098,0.0808851687 2.97821808,0.161946558 C3.05831047,0.2443296 3.09835666,0.350061847 3.09835666,0.457115746 L3.09835666,0.457115746 L3.09835666,14.782073 C3.09835666,14.8961757 3.14144985,15.0111595 3.2285068,15.0997103 C3.31512846,15.1878205 3.42917305,15.2318756 3.5419118,15.2318756 L3.5419118,15.2318756 L9.55798197,15.2318756 L9.55798197,0.490157073 C9.55798197,0.374292153 9.5997693,0.259308335 9.6881321,0.17163868 C9.77475376,0.0839690259 9.88966893,0.0407950252 10.0015371,0.0407950252 L10.0015371,0.0407950252 L21.6258156,0.0407950252 C21.7041669,0.0407950252 21.786871,0.0641442296 21.8578224,0.113485945 C21.9287738,0.161946558 21.9805727,0.231113069 22.0075604,0.30424454 L22.0075604,0.30424454 L23.6947239,4.67979735 L24.1465495,6.18383855 C24.1665726,6.23273972 24.2057482,6.23273972 24.2227243,6.18383855 L24.2227243,6.18383855 L24.7024081,4.7044682 L26.5945908,0.324069336 C26.6294135,0.243007947 26.6873064,0.170317027 26.7656577,0.117891455 C26.8453148,0.0654658827 26.9336776,0.0407950252 27.0220404,0.0407950252 L27.0220404,0.0407950252 L29.4983752,0.0407950252 C29.6354899,0.0407950252 29.7704281,0.11128319 29.8479088,0.238161886 C29.9253895,0.365921684 29.9266953,0.520114543 29.8644496,0.643468831 L29.8644496,0.643468831 L26.1449417,8.08701899 C25.9272993,8.54078655 25.9272993,8.81789315 26.1449417,9.27033905 L26.1449417,9.27033905 L29.988941,17.4659098 C30.0472692,17.5919074 30.0429164,17.7408137 29.9654357,17.8672518 C29.8857786,17.9923683 29.7538873,18.0593321 29.6176432,18.0593321 L29.6176432,18.0593321 L26.9915704,18.0593321 C26.9071252,18.0593321 26.8187624,18.0337801 26.7425876,17.9835573 C26.6659775,17.9302506 26.6111316,17.8580002 26.5789205,17.77782 L26.5789205,17.77782 L24.5770461,12.732189 L24.1221735,11.1788061 C24.0964917,11.1136046 24.0477399,11.1136046 24.0220581,11.1788061 L24.0220581,11.1788061 L23.5179983,12.7083993 L21.3093637,17.8113018 C21.279329,17.8831116 21.2266596,17.9469915 21.1578846,17.9923683 C21.0878037,18.0381856 21.0107583,18.0593321 20.9324071,18.0593321 L20.9324071,18.0593321 L0.445296272,18.0593321 C0.332122244,18.0593321 0.218077647,18.0161581 0.130585417,17.928929 C0.045704896,17.8403782 0,17.7245133 0,17.6108511 L0,17.6108511 L0,0.490157073 C0,0.374292153 0.045704896,0.259308335 0.130585417,0.17163868 C0.218077647,0.0839690259 0.332122244,0.0407950252 0.445296272,0.0407950252 L0.445296272,0.0407950252 Z M80.0019805,11.9245709 C78.7644661,11.986248 77.0620675,14.1462697 77.0620675,16.0560584 C77.0620675,16.5265669 77.403766,16.8706373 77.7123829,16.8706373 C78.8571817,16.8706373 80.3719726,14.084152 80.3719726,13.3004117 C80.1869766,13.2704543 79.878795,12.8942237 79.878795,12.5501533 C79.878795,12.3620381 79.9401701,12.110924 80.0019805,11.9245709 Z M67.5348167,12.018232 C66.6986347,12.018232 63.4823159,14.8355559 62.8942462,16.3391565 C62.9869619,16.4638325 63.2968846,16.7140654 63.6986524,16.7140654 C66.1432114,16.7140654 67.9043734,13.1125608 67.9043734,12.3618618 C67.9043734,12.1111883 67.7507179,12.018232 67.5348167,12.018232 Z M19.1803861,2.81890981 L13.0990232,2.81890981 C12.9858492,2.81890981 12.8722399,2.86208381 12.7851829,2.95019401 C12.6985612,3.03830422 12.6545975,3.15152583 12.6545975,3.26827185 L12.6545975,3.26827185 L12.6545975,7.23719606 C12.6545975,7.35217988 12.6985612,7.46760425 12.7851829,7.55395225 C12.8722399,7.64250301 12.9858492,7.68611756 13.0990232,7.68611756 L13.0990232,7.68611756 L17.7260998,7.68611756 C17.8305681,7.68611756 17.935907,7.72796991 18.01687,7.80770964 C18.0965271,7.88921158 18.1357027,7.99582493 18.1357027,8.10287883 L18.1357027,8.10287883 L18.1357027,9.86199909 C18.1357027,9.9769829 18.0930448,10.0928478 18.0068585,10.1805175 C17.9198015,10.2677466 17.8061922,10.3118017 17.6925829,10.3118017 L17.6925829,10.3118017 L13.0990232,10.3118017 C12.9858492,10.3118017 12.8722399,10.3562973 12.7851829,10.4444075 C12.6985612,10.5320772 12.6545975,10.6466205 12.6545975,10.7624854 L12.6545975,10.7624854 L12.6545975,14.8331769 C12.6545975,14.9481607 12.6985612,15.0635851 12.7851829,15.1499331 C12.8722399,15.2389244 12.9858492,15.2816578 13.0990232,15.2816578 L13.0990232,15.2816578 L18.6697971,15.2816578 C18.7960297,15.2816578 18.9226975,15.2477354 19.0358715,15.1772472 C19.1503514,15.1054374 19.2378437,15.0076351 19.2939954,14.8935324 L19.2939954,14.8935324 L22.1272637,9.26857685 C22.3414237,8.81172544 22.3414237,8.55224088 22.1272637,8.09538946 L22.1272637,8.09538946 L19.8111136,3.22025179 C19.7580089,3.10482742 19.6692108,3.00217903 19.5525545,2.92816646 C19.4376393,2.85283223 19.3070539,2.81890981 19.1803861,2.81890981 L19.1803861,2.81890981 Z M45.4471639,11.7675144 C44.7045682,11.7675144 43.0665918,13.4266296 42.4785221,14.3658844 C43.5915451,14.1460494 45.6948409,12.6129319 45.6948409,12.0811868 C45.6948409,11.8921904 45.6339011,11.7675144 45.4471639,11.7675144 Z M59.0273073,11.7675144 C58.2855821,11.7675144 56.6441235,13.4266296 56.0573596,14.3658844 C57.1721238,14.1460494 59.2754196,12.6129319 59.2754196,12.0811868 C59.2754196,11.8921904 59.2136092,11.7675144 59.0273073,11.7675144 Z M77.7565643,5.27145738 C78.0260055,5.27145738 78.2980585,5.40934985 78.2980585,5.95827643 C78.2980585,6.55257977 77.6869187,6.91823712 77.3944074,6.91823712 C77.0331211,6.91823712 76.8964417,6.43671484 76.8964417,6.09484725 C76.8964417,5.73051155 77.257728,5.27145738 77.7565643,5.27145738 Z" id="Lex-Logo"></path>
            </g>
        </g>
    </g>
</svg>