<?xml version="1.0" encoding="UTF-8"?>
<svg width="70px" height="70px" viewBox="0 0 70 70" version="1.1" xmlns="http://www.w3.org/2000/svg" xmlns:xlink="http://www.w3.org/1999/xlink">
    <!-- Generator: sketchtool 52.5 (67469) - http://www.bohemiancoding.com/sketch -->
    <title>1C067953-F94A-4984-A402-08A80D580AC2</title>
    <desc>Created with sketchtool.</desc>
    <g id="Page-1" stroke="none" stroke-width="1" fill="none" fill-rule="evenodd">
        <g id="ziurby" transform="translate(-1092.000000, -1563.000000)" fill="#00D5A6">
            <g id="section-2" transform="translate(203.000000, 1224.000000)">
                <path d="M951.222222,339 L896.777778,339 C892.5,339 889,342.5 889,346.777778 L889,401.222222 C889,405.5 892.5,409 896.777778,409 L951.222222,409 C955.5,409 959,405.5 959,401.222222 L959,346.777778 C959,342.5 955.5,339 951.222222,339 L951.222222,339 Z M912.333333,393.444444 L904.555556,393.444444 L904.555556,366.222222 L912.333333,366.222222 L912.333333,393.444444 L912.333333,393.444444 Z M927.888889,393.444444 L920.111111,393.444444 L920.111111,354.555556 L927.888889,354.555556 L927.888889,393.444444 L927.888889,393.444444 Z M943.444444,393.444444 L935.666667,393.444444 L935.666667,377.888889 L943.444444,377.888889 L943.444444,393.444444 L943.444444,393.444444 Z" id="Shape"></path>
            </g>
        </g>
    </g>
</svg>