<svg width="40" height="34" xmlns="http://www.w3.org/2000/svg"><path d="M28 16.2h3.919a7.2 7.2 0 110-1.6H28a.8.8 0 100 1.6zM40 2.6v25.6a2.4 2.4 0 01-2.4 2.4h-.8v1.6a1.6 1.6 0 01-1.6 1.6H32a1.6 1.6 0 01-1.6-1.6v-1.6H9.6v1.6A1.6 1.6 0 018 33.8H4.8a1.6 1.6 0 01-1.6-1.6v-1.6h-.8A2.4 2.4 0 010 28.2V2.6A2.4 2.4 0 012.4.2h35.2A2.4 2.4 0 0140 2.6zm-32 28H4.8v1.6H8v-1.6zM8 5.8a.8.8 0 10-1.6 0v2.4h-.8a.8.8 0 100 1.6h.8v4.8h-.8a.8.8 0 100 1.6h.8V21h-.8a.8.8 0 100 1.6h.8V25A.8.8 0 108 25V5.8zm25.6 9.6a8.8 8.8 0 10-17.6 0 8.8 8.8 0 0017.6 0zm1.6 15.2H32v1.6h3.2v-1.6z" fill="#1FDB84"/></svg>