<?xml version="1.0" encoding="UTF-8"?>
<svg width="143px" height="24px" viewBox="0 0 143 24" version="1.1" xmlns="http://www.w3.org/2000/svg" xmlns:xlink="http://www.w3.org/1999/xlink">
    <!-- Generator: sketchtool 54.1 (76490) - https://sketchapp.com -->
    <title>0970F19D-8EB3-4E10-83CD-F945CE3039E1</title>
    <desc>Created with sketchtool.</desc>
    <defs>
        <linearGradient x1="106.308986%" y1="71.5477449%" x2="-6.30898648%" y2="71.5477449%" id="linearGradient-1">
            <stop stop-color="#FA709A" offset="0%"></stop>
            <stop stop-color="#FEE140" offset="100%"></stop>
        </linearGradient>
        <linearGradient x1="106.308986%" y1="71.5477449%" x2="-6.30898648%" y2="71.5477449%" id="linearGradient-2">
            <stop stop-color="#FD87FF" offset="0%"></stop>
            <stop stop-color="#21CFFF" offset="100%"></stop>
        </linearGradient>
    </defs>
    <g id="Symbols" stroke="none" stroke-width="1" fill="none" fill-rule="evenodd">
        <g id="logo/brand">
            <g id="mail-code" transform="translate(4.000000, 8.000000)">
                <path d="M1.5,0 L10,0 C10.8284271,-1.52179594e-16 11.5,0.671572875 11.5,1.5 C11.5,2.32842712 10.8284271,3 10,3 L1.5,3 C0.671572875,3 1.01453063e-16,2.32842712 0,1.5 C-1.01453063e-16,0.671572875 0.671572875,1.52179594e-16 1.5,0 Z M14.5,3 C13.6715729,3 13,2.32842712 13,1.5 C13,0.671572875 13.6715729,0 14.5,0 C15.3284271,0 16,0.671572875 16,1.5 C16,2.32842712 15.3284271,3 14.5,3 Z" id="Rectangle-5-Copy-3" fill="url(#linearGradient-1)" transform="translate(8.000000, 1.500000) scale(-1, 1) translate(-8.000000, -1.500000) "></path>
                <path d="M1.5,5 L10.5,5 C11.3284271,5 12,5.67157288 12,6.5 C12,7.32842712 11.3284271,8 10.5,8 L1.5,8 C0.671572875,8 1.01453063e-16,7.32842712 0,6.5 C-1.01453063e-16,5.67157288 0.671572875,5 1.5,5 Z M14.5,8 C13.6715729,8 13,7.32842712 13,6.5 C13,5.67157288 13.6715729,5 14.5,5 C15.3284271,5 16,5.67157288 16,6.5 C16,7.32842712 15.3284271,8 14.5,8 Z" id="Rectangle-5-Copy-4" fill="url(#linearGradient-2)"></path>
            </g>
            <path d="M34.016,14.656 C34.96,14.656 35.664,14.128 35.84,13.312 L37.728,13.312 C37.616,14.192 37.2,14.928 36.512,15.488 C35.824,16.048 34.992,16.32 34.016,16.32 C32.88,16.32 31.92,15.936 31.152,15.184 C30.384,14.432 30,13.488 30,12.368 C30,11.232 30.384,10.288 31.152,9.536 C31.92,8.784 32.88,8.4 34.016,8.4 C34.976,8.4 35.808,8.688 36.496,9.248 C37.2,9.808 37.616,10.528 37.728,11.408 L35.84,11.408 C35.664,10.592 34.96,10.08 34.016,10.08 C32.736,10.08 31.84,11.072 31.84,12.368 C31.84,13.664 32.736,14.656 34.016,14.656 Z M41.232,8.576 L41.232,9.536 C41.952,8.8 42.864,8.432 43.984,8.432 L43.984,10.176 C42.8,10.224 41.888,10.64 41.232,11.44 L41.232,16.144 L39.376,16.144 L39.376,8.576 L41.232,8.576 Z M52.832,8.576 L52.832,16.144 L50.992,16.144 L50.992,15.616 C50.336,16.08 49.568,16.32 48.672,16.32 C47.616,16.32 46.72,15.936 45.968,15.168 C45.232,14.4 44.864,13.472 44.864,12.368 C44.864,11.264 45.232,10.336 45.968,9.568 C46.72,8.784 47.616,8.4 48.672,8.4 C49.568,8.4 50.336,8.64 50.992,9.104 L50.992,8.576 L52.832,8.576 Z M48.944,14.72 C49.824,14.72 50.512,14.368 50.992,13.648 L50.992,11.072 C50.512,10.352 49.824,10 48.944,10 C48.304,10 47.776,10.24 47.344,10.704 C46.912,11.168 46.704,11.728 46.704,12.368 C46.704,13.008 46.912,13.568 47.344,14.032 C47.776,14.496 48.304,14.72 48.944,14.72 Z M57.968,8.576 L60.928,8.576 L60.928,10.128 L57.968,10.128 L57.968,16.144 L56.112,16.144 L56.112,10.128 L54,10.128 L54,8.576 L56.112,8.576 L56.112,7.232 C56.112,6.256 56.4,5.488 56.96,4.896 C57.52,4.304 58.272,4 59.184,4 C59.776,4 60.352,4.08 60.944,4.24 L60.672,5.84 C60.208,5.744 59.84,5.696 59.552,5.696 C58.592,5.696 57.968,6.288 57.968,7.232 L57.968,8.576 Z M66.704,14.48 L66.96,16.064 C66.256,16.272 65.632,16.384 65.072,16.384 C63.264,16.384 62.144,15.168 62.144,13.232 L62.144,10.128 L60.416,10.128 L60.416,8.576 L62.144,8.576 L62.144,5.808 L63.984,5.808 L63.984,8.576 L66.784,8.576 L66.784,10.128 L63.984,10.128 L63.984,13.232 C63.984,14.192 64.464,14.672 65.424,14.672 C65.824,14.672 66.24,14.608 66.704,14.48 Z M68.448,5.84 C68.448,5.2 68.96,4.704 69.6,4.704 C70.24,4.704 70.752,5.2 70.752,5.84 C70.752,6.464 70.24,6.944 69.6,6.944 C68.96,6.944 68.448,6.464 68.448,5.84 Z M70.528,8.576 L70.528,16.144 L68.688,16.144 L68.688,8.576 L70.528,8.576 Z M77.008,8.336 C78,8.336 78.8,8.672 79.408,9.328 C80.016,9.984 80.32,10.864 80.32,11.968 L80.32,16.144 L78.48,16.144 L78.48,12.08 C78.48,10.752 77.776,10.016 76.624,10.016 C75.92,10.016 75.264,10.384 74.672,11.104 L74.672,16.144 L72.816,16.144 L72.816,8.576 L74.672,8.576 L74.672,9.2 C75.36,8.624 76.144,8.336 77.008,8.336 Z M89.792,8.576 L89.792,16.144 C89.792,17.312 89.44,18.208 88.72,18.896 C88.016,19.568 87.088,19.92 85.952,19.92 C84.88,19.92 83.984,19.632 83.264,19.04 C82.544,18.448 82.128,17.696 82.048,16.784 L83.92,16.784 C84.048,17.664 84.816,18.24 85.952,18.24 C87.152,18.24 87.952,17.472 87.952,16.144 L87.952,15.2 C87.296,15.664 86.528,15.904 85.616,15.904 C84.576,15.904 83.68,15.536 82.928,14.784 C82.192,14.032 81.824,13.168 81.824,12.16 C81.824,11.04 82.192,10.112 82.912,9.392 C83.648,8.656 84.544,8.288 85.616,8.288 C86.528,8.288 87.296,8.528 87.952,8.992 L87.952,8.576 L89.792,8.576 Z M85.888,14.304 C86.784,14.304 87.472,13.952 87.952,13.232 L87.952,10.96 C87.456,10.24 86.768,9.872 85.888,9.872 C85.232,9.872 84.704,10.096 84.288,10.528 C83.872,10.96 83.664,11.504 83.664,12.16 C83.664,12.704 83.872,13.2 84.304,13.648 C84.736,14.08 85.264,14.304 85.888,14.304 Z M99.232,12.24 C99.232,12.608 99.216,12.896 99.184,13.088 L93.376,13.088 C93.616,14.096 94.368,14.752 95.584,14.752 C96.336,14.752 96.848,14.512 97.12,14.048 L99.088,14.048 C98.656,15.44 97.264,16.32 95.536,16.32 C94.336,16.32 93.376,15.952 92.624,15.2 C91.888,14.448 91.52,13.504 91.52,12.368 C91.52,11.232 91.888,10.288 92.624,9.536 C93.376,8.784 94.336,8.4 95.536,8.4 C96.592,8.4 97.472,8.752 98.16,9.472 C98.864,10.192 99.216,11.104 99.232,12.24 Z M95.44,9.968 C94.304,9.968 93.568,10.672 93.36,11.712 L97.36,11.712 C97.216,10.624 96.528,9.968 95.44,9.968 Z M110.08,8.336 C111.024,8.336 111.808,8.672 112.432,9.344 C113.056,10.016 113.376,10.896 113.376,11.968 L113.376,16.144 L111.52,16.144 L111.52,12.08 C111.52,10.752 110.864,10.016 109.696,10.016 C109.008,10.016 108.432,10.368 107.952,11.056 C108.016,11.344 108.048,11.648 108.048,11.968 L108.048,16.144 L106.208,16.144 L106.208,12.08 C106.208,10.752 105.536,10.016 104.384,10.016 C103.776,10.016 103.232,10.352 102.736,11.024 L102.736,16.144 L100.88,16.144 L100.88,8.576 L102.736,8.576 L102.736,9.104 C103.28,8.592 103.952,8.336 104.768,8.336 C105.792,8.336 106.608,8.72 107.232,9.488 C108.032,8.72 108.976,8.336 110.08,8.336 Z M122.976,8.576 L122.976,16.144 L121.136,16.144 L121.136,15.616 C120.48,16.08 119.712,16.32 118.816,16.32 C117.76,16.32 116.864,15.936 116.112,15.168 C115.376,14.4 115.008,13.472 115.008,12.368 C115.008,11.264 115.376,10.336 116.112,9.568 C116.864,8.784 117.76,8.4 118.816,8.4 C119.712,8.4 120.48,8.64 121.136,9.104 L121.136,8.576 L122.976,8.576 Z M119.088,14.72 C119.968,14.72 120.656,14.368 121.136,13.648 L121.136,11.072 C120.656,10.352 119.968,10 119.088,10 C118.448,10 117.92,10.24 117.488,10.704 C117.056,11.168 116.848,11.728 116.848,12.368 C116.848,13.008 117.056,13.568 117.488,14.032 C117.92,14.496 118.448,14.72 119.088,14.72 Z M125.04,5.84 C125.04,5.2 125.552,4.704 126.192,4.704 C126.832,4.704 127.344,5.2 127.344,5.84 C127.344,6.464 126.832,6.944 126.192,6.944 C125.552,6.944 125.04,6.464 125.04,5.84 Z M127.12,8.576 L127.12,16.144 L125.28,16.144 L125.28,8.576 L127.12,8.576 Z M131.264,4.784 L131.264,16.144 L129.408,16.144 L129.408,4.784 L131.264,4.784 Z M132.928,13.584 L134.624,13.6 C134.768,14.448 135.392,14.88 136.48,14.88 C137.376,14.88 138,14.56 138,14.048 C138,13.632 137.696,13.344 137.088,13.248 L135.44,12.976 C133.952,12.736 133.2,11.984 133.2,10.8 C133.2,9.312 134.464,8.368 136.384,8.368 C137.104,8.368 137.776,8.512 138.464,8.848 C139.152,9.184 139.648,9.904 139.728,10.88 L138.016,10.896 C137.952,10.176 137.296,9.792 136.384,9.792 C135.536,9.792 135.024,10.144 135.024,10.608 C135.024,11.056 135.376,11.36 136.096,11.472 L137.504,11.696 C139.008,11.936 139.76,12.688 139.76,13.888 C139.76,15.472 138.4,16.384 136.432,16.384 C134.512,16.384 133.104,15.52 132.928,13.584 Z" id="craftingemails" fill="#4F5A68"></path>
        </g>
    </g>
</svg>