<?xml version="1.0" encoding="UTF-8"?>
<svg width="173px" height="27px" viewBox="0 0 173 27" version="1.1" xmlns="http://www.w3.org/2000/svg" xmlns:xlink="http://www.w3.org/1999/xlink">
    <!-- Generator: sketchtool 53 (72520) - https://sketchapp.com -->
    <title>F43BE64E-392B-4F36-9600-7288B9067F36</title>
    <desc>Created with sketchtool.</desc>
    <defs>
        <path d="M33.5766777,20.6451613 C33.3129477,20.6451613 33.0524631,20.5258314 32.8818244,20.29938 L27.6827513,13.4004197 C26.4480544,11.7619972 24.6440207,10.7006624 22.6030172,10.4119198 C20.561786,10.1232056 18.5330808,10.6423744 16.890149,11.8738033 C16.5067954,12.1612115 15.9623969,12.0841851 15.6742411,11.701807 C15.3861139,11.3194573 15.4633198,10.7765531 15.8467019,10.4892017 C16.8642429,9.72648977 18.0027171,9.18537425 19.2305532,8.88087433 C20.4154307,8.58702126 21.6321357,8.52515596 22.8469333,8.69701032 C24.061674,8.86886469 25.2131582,9.26572248 26.2693306,9.87659617 C27.3637929,10.5096153 28.306434,11.3450665 29.0711199,12.3597824 L34.270193,19.2587426 C34.5583202,19.6410923 34.4811428,20.1839965 34.0977607,20.4713763 C33.941413,20.5885484 33.7582767,20.6451613 33.5766777,20.6451613 Z M36.163444,18.0645161 C35.9007568,18.0645161 35.6413022,17.9453499 35.4713381,17.7192092 L30.292822,10.8297141 C26.3055287,5.52501866 18.7454741,4.45291997 13.440208,8.43975598 C13.0583418,8.72674149 12.5161241,8.64982075 12.2291077,8.26799564 C11.9421197,7.88617052 12.0190204,7.34401118 12.4008866,7.05702567 C18.4686658,2.49715428 27.1152824,3.72337797 31.675701,9.7905045 L36.8542172,16.6799996 C37.1412052,17.0618247 37.0643329,17.6039841 36.6824384,17.8909696 C36.5267372,18.0079809 36.3442967,18.0645161 36.163444,18.0645161 Z M40.4471323,15.483871 C40.1777992,15.483871 39.9117805,15.3648545 39.7375164,15.1389979 L34.4279858,8.25815831 C31.7349458,4.76811293 27.8007467,2.50750795 23.3500642,1.89271696 C18.8994108,1.27786933 14.4750685,2.38384749 10.8919269,5.00679716 C10.5003996,5.29342211 9.94446406,5.21662633 9.65018628,4.83528092 C9.3559085,4.45390718 9.43475471,3.91242898 9.82631103,3.62583234 C11.8282547,2.16034119 14.0678418,1.12065319 16.4828268,0.535680025 C18.8141976,-0.0290464639 21.2084244,-0.147977981 23.5991043,0.182283516 C25.9898423,0.512516696 28.2557405,1.27515089 30.3339138,2.44900497 C32.4866886,3.66499479 34.3411736,5.2702871 35.8458512,7.22022596 L41.1553818,14.1010939 C41.4496305,14.4824393 41.3708133,15.0239175 40.979257,15.3105424 C40.8196167,15.4274068 40.6325895,15.483871 40.4471323,15.483871 Z M19.8236792,18.0645161 C16.9530268,18.0645161 14.1157676,16.7674445 12.2622001,14.3076338 L7.06312993,7.40803382 C6.77500282,7.02565025 6.8522087,6.48269795 7.23559055,6.19529271 C7.61900088,5.90791585 8.16337067,5.9849207 8.45149778,6.36730426 L13.650568,13.2669042 C16.2040557,16.6556285 21.0455933,17.3404946 24.4431929,14.7936559 C24.8265178,14.506279 25.3709161,14.5832555 25.6590717,14.965639 C25.9472273,15.348051 25.8700214,15.8910033 25.486611,16.1783801 C23.7897613,17.4503798 21.7987776,18.0645161 19.8236792,18.0645161 Z M19.822972,22.3655914 C19.1727472,22.3655914 18.5205376,22.3194381 17.8686115,22.2269899 C16.0977408,21.9758969 14.4193097,21.3960044 12.87985,20.5034151 C11.2849548,19.5786773 9.91112077,18.3579973 8.79654295,16.8752813 L3.61799669,9.98651041 C3.33100857,9.60469708 3.40790925,9.06259473 3.78977557,8.77566774 C4.17167025,8.48874075 4.7138881,8.56562505 5.00087622,8.94738168 L10.1793941,15.8361809 C14.1666887,21.1403187 21.7266891,22.2123614 27.0320138,18.2259162 C27.4138517,17.9389608 27.9561263,18.0158451 28.2431144,18.3976301 C28.5301025,18.7794151 28.4532019,19.3215174 28.0713355,19.6084728 C26.5883036,20.7228415 24.9291545,21.5134287 23.1399943,21.9583201 C22.0487816,22.229598 20.9388825,22.3655914 19.822972,22.3655914 Z M20.3649585,26.6666667 C14.7168423,26.6666667 9.13443131,24.1742158 5.48747399,19.4474264 L0.177943005,12.565737 C-0.116305726,12.1843461 -0.0374595093,11.6428032 0.354067777,11.356144 C0.745624136,11.0694849 1.30155974,11.1463181 1.59580847,11.5277091 L6.90533945,18.4093984 C12.4739407,25.6268545 23.0321527,27.0854972 30.4414294,21.6610911 C30.8329276,21.3744886 31.3889213,21.4512652 31.6831701,21.8326845 C31.9774188,22.2140471 31.8985726,22.7555899 31.5070162,23.0422491 C28.1684081,25.4864986 24.2510129,26.6666667 20.3649585,26.6666667 Z" id="path-1"></path>
    </defs>
    <g id="Creative-Agency-Designs" stroke="none" stroke-width="1" fill="none" fill-rule="evenodd">
        <g id="Single_Blog-CA" transform="translate(-32.000000, -21.000000)">
            <g id="Navigation" transform="translate(32.000000, 21.333333)">
                <g id="logo/creativeagency-white">
                    <g id="cc-logo">
                        <g id="Group-2">
                            <mask id="mask-2" fill="white">
                                <use xlink:href="#path-1"></use>
                            </mask>
                            <use id="Mask" fill="#FFFFFF" xlink:href="#path-1"></use>
                            <rect id="Rectangle" fill="#FF794D" mask="url(#mask-2)" x="0" y="0" width="20.6666667" height="26.6666667"></rect>
                        </g>
                    </g>
                    <g id="Group" transform="translate(46.666667, 4.666667)" fill="#FFFFFF">
                        <path d="M12.0986667,11.34 C11.4862192,12.0795593 10.7640042,12.642887 9.932,13.03 C9.09999584,13.417113 8.16978292,13.6106667 7.14133333,13.6106667 C6.21688427,13.6106667 5.35889285,13.4431128 4.56733333,13.108 C3.77577382,12.7728872 3.091114,12.3164473 2.51333333,11.7386667 C1.93555267,11.160886 1.47911279,10.4762262 1.144,9.68466667 C0.808887213,8.89310715 0.641333333,8.04089345 0.641333333,7.128 C0.641333333,6.21510655 0.808887213,5.36289285 1.144,4.57133333 C1.47911279,3.77977382 1.93555267,3.095114 2.51333333,2.51733333 C3.091114,1.93955267 3.77577382,1.48311279 4.56733333,1.148 C5.35889285,0.812887213 6.21688427,0.645333333 7.14133333,0.645333333 C8.13511608,0.645333333 9.01044066,0.818664933 9.76733333,1.16533333 C10.524226,1.51200173 11.1973304,2.01466337 11.7866667,2.67333333 L10.14,4.268 C9.77022037,3.84044231 9.34555795,3.49955683 8.866,3.24533333 C8.38644205,2.99110984 7.81733663,2.864 7.15866667,2.864 C6.580886,2.864 6.03778032,2.9651101 5.52933333,3.16733333 C5.02088635,3.36955657 4.57889077,3.65555371 4.20333333,4.02533333 C3.8277759,4.39511296 3.53022332,4.84288626 3.31066667,5.36866667 C3.09111001,5.89444707 2.98133333,6.48088565 2.98133333,7.128 C2.98133333,7.77511435 3.09111001,8.36155293 3.31066667,8.88733333 C3.53022332,9.41311374 3.8277759,9.86088704 4.20333333,10.2306667 C4.57889077,10.6004463 5.02088635,10.8864434 5.52933333,11.0886667 C6.03778032,11.2908899 6.580886,11.392 7.15866667,11.392 C7.85200347,11.392 8.46733065,11.2504459 9.00466667,10.9673333 C9.54200269,10.6842208 10.0186646,10.2826693 10.4346667,9.76266667 L12.0986667,11.34 Z M13.3866667,4.84 L15.5186667,4.84 L15.5186667,6.01866667 L15.6573333,6.01866667 C15.7613339,5.81066563 15.8999991,5.62000087 16.0733333,5.44666667 C16.2466675,5.27333247 16.4402212,5.12311175 16.654,4.996 C16.8677788,4.86888825 17.0988876,4.77066701 17.3473333,4.70133333 C17.595779,4.63199965 17.8413321,4.59733333 18.084,4.59733333 C18.3844459,4.59733333 18.6415545,4.62622193 18.8553333,4.684 C19.0691122,4.74177807 19.2511104,4.81688843 19.4013333,4.90933333 L18.7946667,6.972 C18.6559993,6.90266632 18.5028897,6.84777798 18.3353333,6.80733333 C18.1677769,6.76688869 17.9626679,6.74666667 17.72,6.74666667 C17.4079984,6.74666667 17.1248902,6.80733273 16.8706667,6.92866667 C16.6164432,7.05000061 16.3997787,7.22044335 16.2206667,7.44 C16.0415547,7.65955665 15.9028894,7.91666519 15.8046667,8.21133333 C15.706444,8.50600147 15.6573333,8.82666493 15.6573333,9.17333333 L15.6573333,13.3333333 L13.3866667,13.3333333 L13.3866667,4.84 Z M27.8306667,11.288 C27.4377758,11.9813368 26.9091144,12.5417756 26.2446667,12.9693333 C25.5802189,13.396891 24.7684492,13.6106667 23.8093333,13.6106667 C23.162219,13.6106667 22.564225,13.4980011 22.0153333,13.2726667 C21.4664417,13.0473322 20.9897798,12.7324465 20.5853333,12.328 C20.1808869,11.9235535 19.8660011,11.4468916 19.6406667,10.898 C19.4153322,10.3491084 19.3026667,9.74533663 19.3026667,9.08666667 C19.3026667,8.47421916 19.4124433,7.8935583 19.632,7.34466667 C19.8515566,6.79577503 20.1577758,6.31622427 20.5506667,5.906 C20.9435575,5.49577573 21.408664,5.16933455 21.946,4.92666667 C22.483336,4.68399879 23.0755523,4.56266667 23.7226667,4.56266667 C24.4044478,4.56266667 25.0111084,4.67533221 25.5426667,4.90066667 C26.0742249,5.12600113 26.5191093,5.43799801 26.8773333,5.83666667 C27.2355573,6.23533533 27.5071102,6.70621951 27.692,7.24933333 C27.8768898,7.79244716 27.9693333,8.3817746 27.9693333,9.01733333 L27.9693333,9.22533333 C27.9577777,9.29466701 27.952,9.35822193 27.952,9.416 C27.9404444,9.47377807 27.9346667,9.53733299 27.9346667,9.60666667 L21.5386667,9.60666667 C21.5848891,9.95333507 21.6802215,10.2508876 21.8246667,10.4993333 C21.9691118,10.747779 22.1482211,10.9557769 22.362,11.1233333 C22.5757788,11.2908897 22.8097765,11.4122218 23.064,11.4873333 C23.3182235,11.5624448 23.5782209,11.6 23.844,11.6 C24.3640026,11.6 24.7944427,11.4815567 25.1353333,11.2446667 C25.4762239,11.0077766 25.7448879,10.710224 25.9413333,10.352 L27.8306667,11.288 Z M25.768,7.99466667 C25.7564444,7.84444369 25.7073338,7.67688981 25.6206667,7.492 C25.5339996,7.30711019 25.4068897,7.13377859 25.2393333,6.972 C25.0717769,6.81022141 24.863779,6.67733385 24.6153333,6.57333333 C24.3668876,6.46933281 24.0693351,6.41733333 23.7226667,6.41733333 C23.2373309,6.41733333 22.8097796,6.55599861 22.44,6.83333333 C22.0702204,7.11066805 21.810223,7.49777529 21.66,7.99466667 L25.768,7.99466667 Z M34.6133333,12.432 L34.4746667,12.432 C34.2088876,12.7555572 33.8882241,13.0328877 33.5126667,13.264 C33.1371092,13.4951123 32.6546696,13.6106667 32.0653333,13.6106667 C31.62622,13.6106667 31.213113,13.5384452 30.826,13.394 C30.4388869,13.2495548 30.1008903,13.0502235 29.812,12.796 C29.5231097,12.5417765 29.2977786,12.2355573 29.136,11.8773333 C28.9742214,11.5191093 28.8933333,11.1262244 28.8933333,10.6986667 C28.8933333,10.2595534 28.9799991,9.86377954 29.1533333,9.51133333 C29.3266675,9.15888713 29.5693318,8.85555683 29.8813333,8.60133333 C30.1933349,8.34710984 30.5602201,8.15355622 30.982,8.02066667 C31.4037799,7.88777711 31.8631086,7.82133333 32.36,7.82133333 C32.9146694,7.82133333 33.3711093,7.86466623 33.7293333,7.95133333 C34.0875573,8.03800043 34.3822211,8.12755509 34.6133333,8.22 L34.6133333,7.96 C34.6133333,7.50933108 34.434224,7.13666814 34.076,6.842 C33.717776,6.54733186 33.2728915,6.4 32.7413333,6.4 C31.9555516,6.4 31.2911138,6.72933004 30.748,7.388 L29.1013333,6.26133333 C30.0026712,5.12888323 31.2333255,4.56266667 32.7933333,4.56266667 C34.1106732,4.56266667 35.1159965,4.87177469 35.8093333,5.49 C36.5026701,6.10822531 36.8493333,7.02399393 36.8493333,8.23733333 L36.8493333,13.3333333 L34.6133333,13.3333333 L34.6133333,12.432 Z M34.6133333,9.884 C34.3475542,9.75688825 34.0731125,9.65577815 33.79,9.58066667 C33.5068875,9.50555518 33.1977794,9.468 32.8626667,9.468 C32.3195528,9.468 31.9006681,9.58644326 31.606,9.82333333 C31.3113319,10.0602234 31.164,10.3519983 31.164,10.6986667 C31.164,11.0453351 31.3055541,11.3226656 31.5886667,11.5306667 C31.8717792,11.7386677 32.1982204,11.8426667 32.568,11.8426667 C32.8684459,11.8426667 33.1457765,11.7877783 33.4,11.678 C33.6542235,11.5682217 33.870888,11.4237787 34.05,11.2446667 C34.229112,11.0655547 34.3677773,10.8575567 34.466,10.6206667 C34.5642227,10.3837766 34.6133333,10.1382235 34.6133333,9.884 Z M39.2813333,6.78133333 L37.7906667,6.78133333 L37.7906667,4.84 L39.2813333,4.84 L39.2813333,2.24 L41.552,2.24 L41.552,4.84 L43.632,4.84 L43.632,6.78133333 L41.552,6.78133333 L41.552,10.0746667 C41.552,10.2711121 41.572222,10.4531103 41.6126667,10.6206667 C41.6531113,10.7882231 41.7311105,10.9297772 41.8466667,11.0453333 C42.0084452,11.2302231 42.239554,11.3226667 42.54,11.3226667 C42.7364454,11.3226667 42.8924439,11.3024446 43.008,11.262 C43.1235561,11.2215554 43.2333328,11.166667 43.3373333,11.0973333 L43.9786667,13.0906667 C43.7128876,13.2177784 43.4268904,13.3131108 43.1206667,13.3766667 C42.8144429,13.4402225 42.4764463,13.472 42.1066667,13.472 C41.679109,13.472 41.2948906,13.4055562 40.954,13.2726667 C40.6131094,13.1397771 40.3271123,12.9577789 40.096,12.7266667 C39.5528862,12.2066641 39.2813333,11.4671159 39.2813333,10.508 L39.2813333,6.78133333 Z M46.5146667,3.60933333 C46.3182212,3.60933333 46.1304453,3.57177815 45.9513333,3.49666667 C45.7722213,3.42155518 45.6162229,3.31755622 45.4833333,3.18466667 C45.3504438,3.05177711 45.2464448,2.89866753 45.1713333,2.72533333 C45.0962218,2.55199913 45.0586667,2.36133437 45.0586667,2.15333333 C45.0586667,1.94533229 45.0962218,1.75466753 45.1713333,1.58133333 C45.2464448,1.40799913 45.3504438,1.25488955 45.4833333,1.122 C45.6162229,0.989110447 45.7722213,0.885111487 45.9513333,0.81 C46.1304453,0.734888513 46.3182212,0.697333333 46.5146667,0.697333333 C46.9191131,0.697333333 47.2657763,0.838887473 47.5546667,1.122 C47.843557,1.40511253 47.988,1.74888687 47.988,2.15333333 C47.988,2.5577798 47.843557,2.90155414 47.5546667,3.18466667 C47.2657763,3.46777919 46.9191131,3.60933333 46.5146667,3.60933333 Z M45.388,13.3333333 L45.388,4.84 L47.6586667,4.84 L47.6586667,13.3333333 L45.388,13.3333333 Z M48.704,4.84 L51.2866667,4.84 L53.4013333,10.248 L53.5226667,10.248 L55.6546667,4.84 L58.22,4.84 L54.5626667,13.3333333 L52.3266667,13.3333333 L48.704,4.84 Z M66.9093333,11.288 C66.5164425,11.9813368 65.9877811,12.5417756 65.3233333,12.9693333 C64.6588856,13.396891 63.8471159,13.6106667 62.888,13.6106667 C62.2408856,13.6106667 61.6428916,13.4980011 61.094,13.2726667 C60.5451084,13.0473322 60.0684465,12.7324465 59.664,12.328 C59.2595535,11.9235535 58.9446678,11.4468916 58.7193333,10.898 C58.4939989,10.3491084 58.3813333,9.74533663 58.3813333,9.08666667 C58.3813333,8.47421916 58.49111,7.8935583 58.7106667,7.34466667 C58.9302233,6.79577503 59.2364425,6.31622427 59.6293333,5.906 C60.0222242,5.49577573 60.4873306,5.16933455 61.0246667,4.92666667 C61.5620027,4.68399879 62.154219,4.56266667 62.8013333,4.56266667 C63.4831145,4.56266667 64.0897751,4.67533221 64.6213333,4.90066667 C65.1528915,5.12600113 65.597776,5.43799801 65.956,5.83666667 C66.314224,6.23533533 66.5857768,6.70621951 66.7706667,7.24933333 C66.9555565,7.79244716 67.048,8.3817746 67.048,9.01733333 L67.048,9.22533333 C67.0364444,9.29466701 67.0306667,9.35822193 67.0306667,9.416 C67.019111,9.47377807 67.0133333,9.53733299 67.0133333,9.60666667 L60.6173333,9.60666667 C60.6635558,9.95333507 60.7588882,10.2508876 60.9033333,10.4993333 C61.0477785,10.747779 61.2268878,10.9557769 61.4406667,11.1233333 C61.6544455,11.2908897 61.8884432,11.4122218 62.1426667,11.4873333 C62.3968901,11.5624448 62.6568875,11.6 62.9226667,11.6 C63.4426693,11.6 63.8731094,11.4815567 64.214,11.2446667 C64.5548906,11.0077766 64.8235546,10.710224 65.02,10.352 L66.9093333,11.288 Z M64.8466667,7.99466667 C64.835111,7.84444369 64.7860004,7.67688981 64.6993333,7.492 C64.6126662,7.30711019 64.4855564,7.13377859 64.318,6.972 C64.1504436,6.81022141 63.9424457,6.67733385 63.694,6.57333333 C63.4455543,6.46933281 63.1480017,6.41733333 62.8013333,6.41733333 C62.3159976,6.41733333 61.8884463,6.55599861 61.5186667,6.83333333 C61.148887,7.11066805 60.8888896,7.49777529 60.7386667,7.99466667 L64.8466667,7.99466667 Z" id="Creative"></path>
                        <path d="M75.088,2.88133333 L73.06,8.48 L77.1853333,8.48 L75.1573333,2.88133333 L75.088,2.88133333 Z M71.3093333,13.3333333 L69.5413333,13.3333333 L74.2213333,0.922666667 L76.024,0.922666667 L80.704,13.3333333 L78.936,13.3333333 L77.74,9.97066667 L72.5226667,9.97066667 L71.3093333,13.3333333 Z M85.3893333,12.1546667 C86.175115,12.1546667 86.816442,11.8715584 87.3133333,11.3053333 C87.8333359,10.7391083 88.0933333,9.99956012 88.0933333,9.08666667 C88.0933333,8.19688444 87.8333359,7.463114 87.3133333,6.88533333 C86.8048863,6.30755267 86.1635594,6.01866667 85.3893333,6.01866667 C84.6266629,6.01866667 83.9853359,6.30755267 83.4653333,6.88533333 C82.9453307,7.463114 82.6853333,8.19688444 82.6853333,9.08666667 C82.6853333,9.98800451 82.9453307,10.7217749 83.4653333,11.288 C83.9853359,11.8657807 84.6266629,12.1546667 85.3893333,12.1546667 Z M85.3373333,17.3546667 C84.8635532,17.3546667 84.4186687,17.2940006 84.0026667,17.1726667 C83.5866646,17.0513327 83.2082239,16.88089 82.8673333,16.6613333 C82.5264427,16.4417767 82.2346679,16.1817793 81.992,15.8813333 C81.7493321,15.5808874 81.5644451,15.2457796 81.4373333,14.876 L82.9453333,14.252 C83.1186675,14.7488914 83.419109,15.1475541 83.8466667,15.448 C84.2742244,15.7484459 84.7711083,15.8986667 85.3373333,15.8986667 C86.2040043,15.8986667 86.8799976,15.6386693 87.3653333,15.1186667 C87.8506691,14.5986641 88.0933333,13.8822268 88.0933333,12.9693333 L88.0933333,12.1546667 L88.024,12.1546667 C87.7235541,12.6053356 87.3162248,12.9606654 86.802,13.2206667 C86.2877752,13.480668 85.7302252,13.6106667 85.1293333,13.6106667 C84.0199945,13.6106667 83.0666707,13.1773377 82.2693333,12.3106667 C81.4835516,11.4208844 81.0906667,10.3462285 81.0906667,9.08666667 C81.0906667,7.82710481 81.4835516,6.75822661 82.2693333,5.88 C83.0666707,5.00177339 84.0199945,4.56266667 85.1293333,4.56266667 C85.7302252,4.56266667 86.2877752,4.69266537 86.802,4.95266667 C87.3162248,5.21266797 87.7235541,5.56799775 88.024,6.01866667 L88.0933333,6.01866667 L88.0933333,4.84 L89.6186667,4.84 L89.6186667,12.9693333 C89.6186667,14.3328957 89.2315594,15.4017739 88.4573333,16.176 C87.6715516,16.9617817 86.631562,17.3546667 85.3373333,17.3546667 Z M95.1533333,13.6106667 C93.9053271,13.6106667 92.8768929,13.1831154 92.068,12.328 C91.2591071,11.4728846 90.8546667,10.392451 90.8546667,9.08666667 C90.8546667,7.79243797 91.2475516,6.71489319 92.0333333,5.854 C92.819115,4.99310681 93.8244383,4.56266667 95.0493333,4.56266667 C96.3088952,4.56266667 97.3113296,4.96999593 98.0566667,5.78466667 C98.8020037,6.59933741 99.1746667,7.74043711 99.1746667,9.208 L99.1573333,9.38133333 L92.484,9.38133333 C92.5071112,10.2133375 92.7844418,10.883553 93.316,11.392 C93.8475582,11.900447 94.4831074,12.1546667 95.2226667,12.1546667 C96.2395606,12.1546667 97.036886,11.6462273 97.6146667,10.6293333 L99.036,11.3226667 C98.6546648,12.0391147 98.1260034,12.5995535 97.45,13.004 C96.7739966,13.4084465 96.0084487,13.6106667 95.1533333,13.6106667 Z M92.6053333,8.064 L97.476,8.064 C97.4297775,7.47466372 97.1900022,6.98644638 96.7566667,6.59933333 C96.3233312,6.21222029 95.7426703,6.01866667 95.0146667,6.01866667 C94.4137748,6.01866667 93.8966688,6.20355371 93.4633333,6.57333333 C93.0299978,6.94311296 92.7440007,7.43999688 92.6053333,8.064 Z M100.497333,4.84 L102.022667,4.84 L102.022667,6.01866667 L102.092,6.01866667 C102.334668,5.60266459 102.707331,5.25600139 103.21,4.97866667 C103.712669,4.70133195 104.235553,4.56266667 104.778667,4.56266667 C105.818672,4.56266667 106.618886,4.86021925 107.179333,5.45533333 C107.739781,6.05044742 108.02,6.8968834 108.02,7.99466667 L108.02,13.3333333 L106.425333,13.3333333 L106.425333,8.09866667 C106.390666,6.71199307 105.691562,6.01866667 104.328,6.01866667 C103.692441,6.01866667 103.160891,6.27577521 102.733333,6.79 C102.305776,7.30422479 102.092,7.91955197 102.092,8.636 L102.092,13.3333333 L100.497333,13.3333333 L100.497333,4.84 Z M113.641333,13.6106667 C112.381771,13.6106667 111.336004,13.1831154 110.504,12.328 C109.683551,11.4497734 109.273333,10.3693397 109.273333,9.08666667 C109.273333,7.78088236 109.683551,6.70044872 110.504,5.84533333 C111.336004,4.99021795 112.381771,4.56266667 113.641333,4.56266667 C114.508004,4.56266667 115.264886,4.77933117 115.912,5.21266667 C116.559114,5.64600217 117.044443,6.24399619 117.368,7.00666667 L115.912,7.61333333 C115.461331,6.55021691 114.669783,6.01866667 113.537333,6.01866667 C112.80933,6.01866667 112.179558,6.31333039 111.648,6.90266667 C111.127997,7.49200295 110.868,8.21999567 110.868,9.08666667 C110.868,9.95333767 111.127997,10.6813304 111.648,11.2706667 C112.179558,11.8600029 112.80933,12.1546667 113.537333,12.1546667 C114.70445,12.1546667 115.524887,11.6231164 115.998667,10.56 L117.42,11.1666667 C117.107998,11.9293371 116.619781,12.5273312 115.955333,12.9606667 C115.290886,13.3940022 114.51956,13.6106667 113.641333,13.6106667 Z M126.265333,4.84 L120.944,17.0773333 L119.297333,17.0773333 L121.273333,12.796 L117.772,4.84 L119.505333,4.84 L122.036,10.9413333 L122.070667,10.9413333 L124.532,4.84 L126.265333,4.84 Z" id="Agency"></path>
                    </g>
                </g>
            </g>
        </g>
    </g>
</svg>