<?xml version="1.0" encoding="UTF-8"?>
<svg width="33px" height="33px" viewBox="0 0 33 33" version="1.1" xmlns="http://www.w3.org/2000/svg" xmlns:xlink="http://www.w3.org/1999/xlink">
    <!-- Generator: sketchtool 53.2 (72643) - https://sketchapp.com -->
    <title>B85FB55D-AAE4-4981-8B86-41410BC7AEF6</title>
    <desc>Created with sketchtool.</desc>
    <g id="Workspace" stroke="none" stroke-width="1" fill="none" fill-rule="evenodd">
        <g id="1-1-1-Choose-Name" transform="translate(-256.000000, -816.000000)" fill="#6B7C93">
            <g id="Footer" transform="translate(0.000000, 673.000000)">
                <g id="Socials" transform="translate(150.000000, 143.000000)">
                    <g id="Facebook" transform="translate(106.000000, 0.000000)">
                        <path d="M0,16.5 C0,7.38730118 7.38730118,0 16.5,0 C25.6126988,0 33,7.38730118 33,16.5 C33,25.6126988 25.6126988,33 16.5,33 C7.38730118,33 0,25.6126988 0,16.5 Z M17.3196507,26 L17.3196507,16.9989462 L19.6863599,16.9989462 L20,13.8971332 L17.3196507,13.8971332 L17.3236717,12.3446459 C17.3236717,11.5356453 17.3968879,11.1021643 18.5036755,11.1021643 L19.9832457,11.1021643 L19.9832457,8 L17.6162014,8 C14.7730005,8 13.7722675,9.50471302 13.7722675,12.0351672 L13.7722675,13.8974844 L12,13.8974844 L12,16.9992974 L13.7722675,16.9992974 L13.7722675,26 L17.3196507,26 Z" id="Combined-Shape"></path>
                    </g>
                </g>
            </g>
        </g>
    </g>
</svg>