<?xml version="1.0" encoding="UTF-8"?>
<svg width="33px" height="33px" viewBox="0 0 33 33" version="1.1" xmlns="http://www.w3.org/2000/svg" xmlns:xlink="http://www.w3.org/1999/xlink">
    <!-- Generator: sketchtool 53.2 (72643) - https://sketchapp.com -->
    <title>BA63877C-187D-4821-9B5C-FBED1DCBA938</title>
    <desc>Created with sketchtool.</desc>
    <g id="Workspace" stroke="none" stroke-width="1" fill="none" fill-rule="evenodd">
        <g id="1-1-1-Choose-Name" transform="translate(-203.000000, -816.000000)" fill="#6B7C93">
            <g id="Footer" transform="translate(0.000000, 673.000000)">
                <g id="Socials" transform="translate(150.000000, 143.000000)">
                    <g id="LinkedIN" transform="translate(53.000000, 0.000000)">
                        <path d="M0,16.5 C0,7.38730118 7.38730118,0 16.5,0 C25.6126988,0 33,7.38730118 33,16.5 C33,25.6126988 25.6126988,33 16.5,33 C7.38730118,33 0,25.6126988 0,16.5 Z M25,17.8365676 C25,14.5360612 23.3841493,13 21.2288674,13 C19.4881755,13 18.7117659,14.0446496 18.2764097,14.7753713 L18.2764097,14.8105482 L18.2546663,14.8105482 C18.2605297,14.7990891 18.2698133,14.7873634 18.2764097,14.7753713 L18.2764097,13.2523681 L15,13.2523681 C15.0439754,14.2605083 15,23.9997335 15,23.9997335 L18.2761653,23.9997335 L18.2761653,17.9972624 C18.2761653,17.6750733 18.2983973,17.3560821 18.3846379,17.1263658 C18.622105,16.4835865 19.1598261,15.8197543 20.0649858,15.8197543 C21.2510994,15.8197543 21.724079,16.8057756 21.724079,18.2496305 L21.724079,24 L25,24 L25,17.8365676 Z M11.0121984,8 C9.79581013,8 9,8.8641745 9,9.99956949 C9,11.110856 9.77273933,12 10.9655264,12 L10.9885972,12 C12.2288518,12 13,11.110856 13,9.99956949 C12.9763988,8.8641745 12.2288518,8 11.0121984,8 Z M9,23 L12,23 L12,13 L9,13 L9,23 Z" id="Combined-Shape"></path>
                    </g>
                </g>
            </g>
        </g>
    </g>
</svg>