<?xml version="1.0" encoding="UTF-8"?>
<svg width="33px" height="33px" viewBox="0 0 33 33" version="1.1" xmlns="http://www.w3.org/2000/svg" xmlns:xlink="http://www.w3.org/1999/xlink">
    <!-- Generator: sketchtool 53.2 (72643) - https://sketchapp.com -->
    <title>5558CDDD-997C-41CB-B12E-51BE207FC3FD</title>
    <desc>Created with sketchtool.</desc>
    <g id="Workspace" stroke="none" stroke-width="1" fill="none" fill-rule="evenodd">
        <g id="1-1-1-Choose-Name" transform="translate(-150.000000, -816.000000)" fill="#6B7C93">
            <g id="Footer" transform="translate(0.000000, 673.000000)">
                <g id="Socials" transform="translate(150.000000, 143.000000)">
                    <g id="Twitter">
                        <path d="M0,16.5 C0,7.38730118 7.38730118,0 16.5,0 C25.6126988,0 33,7.38730118 33,16.5 C33,25.6126988 25.6126988,33 16.5,33 C7.38730118,33 0,25.6126988 0,16.5 Z M26,10.774736 C25.3374989,11.0759013 24.6266448,11.2801482 23.8797612,11.3713336 C24.6423801,10.9028241 25.2261458,10.1597022 25.5028227,9.2769357 C24.7874686,9.71080566 23.9978497,10.025851 23.1564954,10.196635 C22.482759,9.45927635 21.5244339,9 20.461491,9 C18.4222523,9 16.7688084,10.696284 16.7688084,12.7872119 C16.7688084,13.0837606 16.8014261,13.3733995 16.8644262,13.6503654 C13.7960095,13.4922544 11.0751521,11.9840742 9.2541197,9.69233926 C8.93579565,10.2508574 8.75470712,10.9016473 8.75470712,11.5963401 C8.75470712,12.9106834 9.40709053,14.0703856 10.3969157,14.748875 C9.79176763,14.7281154 9.22261964,14.5573313 8.72435412,14.2734557 L8.72435412,14.3207683 C8.72435412,16.1555201 9.99762091,17.6867832 11.6859178,18.0352913 C11.3765938,18.1206834 11.0504167,18.167996 10.712975,18.167996 C10.4745335,18.167996 10.2439448,18.1437664 10.0178562,18.0976004 C10.4880041,19.6034873 11.851271,20.6985571 13.4664795,20.7285801 C12.2033304,21.7440512 10.6106219,22.3475586 8.88070732,22.3475586 C8.58264801,22.3475586 8.2890593,22.3290922 8,22.2956294 C9.6343262,23.372263 11.5745941,24 13.6599504,24 C20.4525498,24 24.165497,18.2280118 24.165497,13.2222587 L24.1531146,12.7318429 C24.8785864,12.2009941 25.5062051,11.5340311 26,10.774736 Z" id="Combined-Shape"></path>
                    </g>
                </g>
            </g>
        </g>
    </g>
</svg>