<?xml version="1.0" encoding="UTF-8"?>
<svg width="29px" height="42px" viewBox="0 0 29 42" version="1.1" xmlns="http://www.w3.org/2000/svg" xmlns:xlink="http://www.w3.org/1999/xlink">
    <!-- Generator: sketchtool 52.6 (67491) - http://www.bohemiancoding.com/sketch -->
    <title>8F527BED-82FA-4E03-8556-B7C6C573F2A0</title>
    <desc>Created with sketchtool.</desc>
    <g id="Page-1" stroke="none" stroke-width="1" fill="none" fill-rule="evenodd" stroke-linecap="round" stroke-linejoin="round">
        <g id="Sedna" transform="translate(-635.000000, -871.000000)" stroke="#FF5274" stroke-width="2">
            <g id="Intro" transform="translate(283.000000, 870.000000)">
                <g id="col-2" transform="translate(353.000000, 0.000000)">
                    <path d="M12.8074545,30 L18.1465455,31.2561818 C18.1465455,31.2561818 19.0947273,31.5909091 19.0947273,30.4250909 C19.0947273,30.4250909 19.0858182,30.9087273 19.0947273,30.3232727 C19.1138182,28.922 19.3581818,28.2881818 21.8934545,25.5454545 C21.8985455,25.5390909 21.9036364,25.5518182 21.9087273,25.5454545 C24.1818182,23.6363636 26.7272727,20.6136364 26.7272727,15.3636364 C26.7272727,7.25 20.0989091,2 13.3636364,2 C6.52272727,2 0,7.40909091 0,15.3636364 C0,20.4545455 2.54545455,23.6363636 4.81854545,25.5454545 C4.82363636,25.5518182 4.82872727,25.5390909 4.83381818,25.5454545 C7.36909091,28.2881818 7.61218182,28.922 7.63254545,30.3232727 C7.64145455,30.9087273 7.63254545,30.9990909 7.63254545,30.9990909 C7.63254545,31.6889091 7.48363636,32.3036364 8.27272727,32.5454545 L18.5741818,34.8121818 M8.27272727,35.964 L18.4545455,38.2727273 M8.90909091,39.5989091 L17.1818182,41.4545455" id="icon"></path>
                </g>
            </g>
        </g>
    </g>
</svg>