<?xml version="1.0" encoding="UTF-8"?>
<svg width="39px" height="42px" viewBox="0 0 39 42" version="1.1" xmlns="http://www.w3.org/2000/svg" xmlns:xlink="http://www.w3.org/1999/xlink">
    <!-- Generator: sketchtool 52.6 (67491) - http://www.bohemiancoding.com/sketch -->
    <title>5AD6E84B-1A24-4121-9291-FDEB6CE9F195</title>
    <desc>Created with sketchtool.</desc>
    <g id="Page-1" stroke="none" stroke-width="1" fill="none" fill-rule="evenodd" stroke-linecap="round" stroke-linejoin="round">
        <g id="Sedna" transform="translate(-990.000000, -871.000000)" stroke="#FF5274" stroke-width="2">
            <g id="Intro" transform="translate(283.000000, 870.000000)">
                <g id="col-3" transform="translate(708.000000, 0.000000)">
                    <path d="M26.4223252,21.6333333 C26.4223252,10.7906667 22.7363252,2 18.1889919,2 C13.6416586,2 9.95565856,10.7906667 9.95565856,21.6333333 C9.95565856,32.476 13.6416586,41.2666667 18.1889919,41.2666667 C22.7363252,41.2666667 26.4223252,32.476 26.4223252,21.6333333 L26.4223252,21.6333333 Z M14.0723252,14.5032667 C4.68125856,19.9246 -1.81800811,27.5119333 0.455658561,31.45 C2.72932523,35.3880667 12.9145919,34.1847333 22.3056586,28.7634 C31.6967252,23.3420667 38.1959919,15.7547333 35.9223252,11.8166667 C33.6486586,7.8786 23.4633919,9.08193333 14.0723252,14.5032667 L14.0723252,14.5032667 Z M14.0723252,28.7634 C23.4633919,34.1847333 33.6486586,35.3880667 35.9223252,31.45 C38.1959919,27.5119333 31.6967252,19.9246 22.3056586,14.5032667 C12.9145919,9.08193333 2.72932523,7.8786 0.455658561,11.8166667 C-1.81800811,15.7547333 4.68125856,23.3420667 14.0723252,28.7634 L14.0723252,28.7634 Z M20.7223252,21.6333333 C20.7223252,23.033 19.5873919,24.1666667 18.1889919,24.1666667 C16.7893252,24.1666667 15.6556586,23.033 15.6556586,21.6333333 C15.6556586,20.2349333 16.7893252,19.1 18.1889919,19.1 C19.5873919,19.1 20.7223252,20.2349333 20.7223252,21.6333333 L20.7223252,21.6333333 Z" id="icon"></path>
                </g>
            </g>
        </g>
    </g>
</svg>