<?xml version="1.0" encoding="UTF-8"?>
<svg width="36px" height="37px" viewBox="0 0 36 37" version="1.1" xmlns="http://www.w3.org/2000/svg" xmlns:xlink="http://www.w3.org/1999/xlink">
    <!-- Generator: sketchtool 52.6 (67491) - http://www.bohemiancoding.com/sketch -->
    <title>CA9BF3F7-F9E1-48B4-BBE8-9AC36EEA4335</title>
    <desc>Created with sketchtool.</desc>
    <g id="Page-1" stroke="none" stroke-width="1" fill="none" fill-rule="evenodd" stroke-linecap="round" stroke-linejoin="round">
        <g id="Sedna" transform="translate(-903.000000, -1399.000000)" stroke="#FF5274" stroke-width="2">
            <g id="Features" transform="translate(-159.000000, 1233.000000)">
                <g id="list-item-01" transform="translate(1063.000000, 161.239340)">
                    <path d="M19.4766806,39.90625 L16.1954306,36.625 L19.4766806,33.34375 M9.63293057,13.65625 L12.9830868,8.67421875 C15.0513681,5.10859375 18.4332431,5.10859375 20.5015243,8.67421875 L27.1329306,20.21875 M28.2266806,14.75 L27.1329306,20.21875 L21.6641806,19.125 M9.63293057,36.6457812 L4.71105557,36.6457812 C0.588711819,36.6370312 -1.19956943,33.1359375 0.855586819,29.5626562 L7.44543057,18.03125 M1.97668057,19.125 L7.44543057,18.03125 L9.63293057,23.5 M30.4141806,24.59375 L32.6290243,29.59 C34.6841806,33.164375 32.8958993,36.6173438 28.7735556,36.625 L16.1954306,36.6457812" id="Imported-Layers-Copy"></path>
                </g>
            </g>
        </g>
    </g>
</svg>