<?xml version="1.0" encoding="UTF-8"?>
<svg width="41px" height="37px" viewBox="0 0 41 37" version="1.1" xmlns="http://www.w3.org/2000/svg" xmlns:xlink="http://www.w3.org/1999/xlink">
    <!-- Generator: sketchtool 52.6 (67491) - http://www.bohemiancoding.com/sketch -->
    <title>7B7D441B-F05A-4103-8DF3-4B7E191FDEBF</title>
    <desc>Created with sketchtool.</desc>
    <g id="Page-1" stroke="none" stroke-width="1" fill="none" fill-rule="evenodd" stroke-linecap="round" stroke-linejoin="round">
        <g id="Sedna" transform="translate(-899.000000, -1517.000000)" stroke="#FF5274" stroke-width="2">
            <g id="Features" transform="translate(-159.000000, 1233.000000)">
                <g id="list-item-02" transform="translate(1059.000000, 281.000000)">
                    <path d="M0,38.4444444 C1.52888889,32.7411111 8.89555556,32.2844444 10.4955556,31.5888889 C13.3288889,30.36 14.3633333,28.4466667 14.6788889,26.7966667 C12.9133333,25.2722222 11.4811111,23.0088889 10.6011111,20.5444444 C9.36333333,19.1977778 8.62777778,17.7244444 8.62777778,16.5077778 C8.62777778,15.6455556 9.00444444,15.07 9.66111111,14.6777778 C9.91444444,8.75222222 14.1622222,4.03111111 19.3911111,4.00333333 C19.4066667,4.00222222 19.4222222,4 19.4388889,4 C19.48,4 19.52,4.00666667 19.5611111,4.00666667 C24.8222222,4.08111111 29.0755556,8.90333333 29.2266667,14.9088889 C29.6766667,15.2888889 29.9344444,15.8 29.9344444,16.5077778 C29.9344444,17.5411111 29.3988889,18.7611111 28.4811111,19.9311111 C27.5877778,22.7588889 25.9633333,25.3833333 23.9233333,27.0244444 C24.2388889,28.6733333 25.2733333,30.5866667 28.1066667,31.8166667 C29.7066667,32.5111111 37.0733333,32.7411111 38.6022222,38.4444444" id="Imported-Layers"></path>
                </g>
            </g>
        </g>
    </g>
</svg>