<?xml version="1.0" encoding="UTF-8"?>
<svg width="31px" height="38px" viewBox="0 0 31 38" version="1.1" xmlns="http://www.w3.org/2000/svg" xmlns:xlink="http://www.w3.org/1999/xlink">
    <!-- Generator: sketchtool 52.6 (67491) - http://www.bohemiancoding.com/sketch -->
    <title>FDB5DDFB-F045-4E29-90C6-AF70CD5221FF</title>
    <desc>Created with sketchtool.</desc>
    <g id="Page-1" stroke="none" stroke-width="1" fill="none" fill-rule="evenodd" stroke-linecap="round" stroke-linejoin="round">
        <g id="Sedna" transform="translate(-903.000000, -1634.000000)" stroke="#FF5274" stroke-width="2">
            <g id="Features" transform="translate(-159.000000, 1233.000000)">
                <g id="list-item-03" transform="translate(1063.000000, 396.803301)">
                    <path d="M8.75221641,6 L18.7522164,6 L8.75221641,6 Z M27.7555497,36.4722222 L20.8633275,25.4444444 L20.8622164,25.4433333 L20.7633275,25.3033333 C20.2355497,24.55 17.6411053,20.1044444 17.6411053,16.2777778 L17.6411053,8.22222222 L9.86332753,8.22222222 L9.86332753,16.2777778 C9.86332753,20.3444444 7.03332753,25.4266667 7.02332753,25.4433333 L0.859994192,36.4722222 C-0.910005808,38.9622222 0.141105303,40.4444444 3.19666086,40.4444444 L25.4188831,40.4444444 C28.4744386,40.4444444 29.5255497,38.9622222 27.7555497,36.4722222 L27.7555497,36.4722222 Z M6.95554975,26.1922222 C8.00221641,26.7888889 8.95999419,27.4366667 11.0399942,27.4366667 C14.8955497,27.4366667 14.8955497,25.2144444 18.7511053,25.2144444 C19.6322164,25.2144444 20.3133275,25.3311111 20.8844386,25.5111111 L6.95554975,26.1922222 Z" id="Imported-Layers"></path>
                </g>
            </g>
        </g>
    </g>
</svg>