<?xml version="1.0" encoding="UTF-8"?>
<svg width="42px" height="42px" viewBox="0 0 42 42" version="1.1" xmlns="http://www.w3.org/2000/svg" xmlns:xlink="http://www.w3.org/1999/xlink">
    <!-- Generator: sketchtool 52.6 (67491) - http://www.bohemiancoding.com/sketch -->
    <title>7DF5BCDF-D1DC-4D66-91F5-53FA9AF82197</title>
    <desc>Created with sketchtool.</desc>
    <g id="Page-1" stroke="none" stroke-width="1" fill="none" fill-rule="evenodd">
        <g id="Sedna" transform="translate(-282.000000, -871.000000)">
            <g id="Intro" transform="translate(283.000000, 870.000000)">
                <g id="col-1">
                    <g id="icon" transform="translate(0.000000, 2.000000)">
                        <path d="M30.6053185,22.2050514 C35.4441558,27.0672089 39.1761699,30.8159247 39.1761699,30.8159247 C39.706576,31.3501712 39.6068852,32.3095034 39.0764791,32.8424658 L32.6860441,39.3394692 C32.155638,39.8737158 30.9043908,40.1177226 30.1298701,39.3394692 C30.1298701,39.3394692 26.8387961,35.8000856 22.0421356,30.9803082 M9.10406102,17.9798801 C4.17703566,13.0278253 0.733869305,9.7260274 0.733869305,9.7260274 C0.203463203,9.19306507 -0.144176458,8.04109589 0.733869305,7.15753425 L7.12430427,0.73630137 C7.65471037,0.203339041 8.69507318,-0.252568493 9.68047825,0.73630137 C9.68047825,0.73630137 12.8693053,4.38356164 17.8372294,9.37542808 M28.4517419,37.0971747 L33.3250876,32.2003425 M24.6711606,33.1892123 L26.9346526,30.9160959 M2.86316223,11.4379281 L7.76334776,6.51541096 M6.72554113,15.2636986 L9.04143476,12.9366438" id="Stroke-1" stroke="#FF5274" stroke-width="2" stroke-linecap="round" stroke-linejoin="round"></path>
                        <polygon id="Fill-2" points="4.13358071 27.4036815 26.116677 5.31464041 34.7182024 13.9576199 12.8756957 36.0530822 0.0948258091 39.8788527"></polygon>
                        <polygon id="Stroke-3" stroke="#FF5274" stroke-width="2" stroke-linecap="round" stroke-linejoin="round" points="4.13358071 27.4036815 26.116677 5.31464041 34.7182024 13.9576199 12.8756957 36.0530822 0.0948258091 39.8788527"></polygon>
                        <path d="M34.682416,13.9576199 L39.4611833,9.15582192 C39.9890332,8.62542808 39.9890332,7.76498288 39.4611833,7.23458904 L32.7716759,0.511558219 C32.243826,-0.0188356164 31.3875077,-0.0188356164 30.8596578,0.511558219 L26.0808905,5.31464041" id="Stroke-4" stroke="#FF5274" stroke-width="2" stroke-linecap="round" stroke-linejoin="round"></path>
                        <path d="M32.3511853,11.6151541 L11.5976087,32.2003425 L12.7005978,36.0453767 M4.09779427,27.4036815 L7.80808081,28.25 L28.3303236,7.57363014" id="Stroke-5" stroke="#FF5274" stroke-width="2" stroke-linejoin="round"></path>
                        <polyline id="Stroke-6" stroke="#FF5274" stroke-width="2" stroke-linecap="round" stroke-linejoin="round" points="7.76334776 28.3476027 7.76334776 32.2003425 11.5976087 32.2003425"></polyline>
                    </g>
                </g>
            </g>
        </g>
    </g>
</svg>